<svg xmlns="http://www.w3.org/2000/svg" xmlns:xlink="http://www.w3.org/1999/xlink" width="410" height="284" viewBox="0 0 410 284"><defs><style>.a{fill:#fff;}.b,.c,.f,.k{fill:#1a1a1a;}.b{font-size:21px;}.b,.e,.f{font-family:SourceHanSans-Bold, Source Han Sans;}.b,.e,.f,.j,.k{font-weight:700;}.c,.j,.k{font-size:12px;}.c{font-family:SourceHanSans-Regular, Source Han Sans;}.d{fill:#0d3bd1;}.e{fill:#0b3bd8;}.e,.f{font-size:14px;}.g,.i{fill:#333;}.g{opacity:0.2;}.h{fill:url(#a);}.i{opacity:0.1;}.j{fill:#ffd800;}.j,.k{font-family:IBMPlexSans-Bold, IBM Plex Sans;}.k{opacity:0.502;}</style><linearGradient id="a" x1="0.5" y1="0.5" x2="0" y2="0.5" gradientUnits="objectBoundingBox"><stop offset="0" stop-color="#0c4af2"/><stop offset="1" stop-color="#1109e2"/></linearGradient></defs><rect class="a" width="410" height="284" rx="16"/><text class="b" transform="translate(30 40)"><tspan x="0" y="0">NMN含有量</tspan></text><text class="c" transform="translate(150 37)"><tspan x="0" y="0">（１粒あたり）</tspan></text><rect class="d" width="362" height="1" transform="translate(24 54)"/><text class="e" transform="translate(101 99)"><tspan x="-70.812" y="0">Ultra NMN</tspan><tspan x="-32.984" y="16">9600</tspan></text><text class="f" transform="translate(101 153)"><tspan x="-56" y="0">国内他社</tspan></text><text class="f" transform="translate(101 198)"><tspan x="-56" y="0">米国他社</tspan></text><text class="f" transform="translate(101 243)"><tspan x="-56" y="0">香港他社</tspan></text><g transform="translate(107 79)"><rect class="g" width="1" height="181" transform="translate(4)"/><rect class="g" width="4" height="1"/><rect class="g" width="4" height="1" transform="translate(0 45)"/><rect class="g" width="4" height="1" transform="translate(0 90)"/><rect class="g" width="4" height="1" transform="translate(0 135)"/><rect class="g" width="4" height="1" transform="translate(0 180)"/></g><rect class="h" width="264" height="32" transform="translate(116 86)"/><rect class="i" width="181.97" height="32" transform="translate(116 131)"/><rect class="i" width="181.97" height="32" transform="translate(116 176)"/><rect class="i" width="240.56" height="32" transform="translate(116 221)"/><text class="j" transform="translate(333 106)"><tspan x="0" y="0">160mg</tspan></text><text class="k" transform="translate(251 152)"><tspan x="0" y="0">125mg</tspan></text><text class="k" transform="translate(251 197)"><tspan x="0" y="0">125mg</tspan></text><text class="k" transform="translate(309 242)"><tspan x="0" y="0">150mg</tspan></text></svg>