<svg xmlns="http://www.w3.org/2000/svg" width="2209.89" height="736" viewBox="0 0 2209.89 736"><defs><style>.a{fill:rgba(51,51,51,0.05);}.b{fill:rgba(255,255,255,0.39);}</style></defs><g transform="translate(299 -72)"><path class="a" d="M0,0H1024V608H0Z" transform="translate(0 72)"/><path class="a" d="M0,0H745.617V736H0Z" transform="translate(278.383 72)"/><path class="b" d="M730.568,1371.418V994.333l287.274,377.085h160.731v-672H1001.906v368.489L721.479,699.418H553.9v672Zm756.871,0V991.68l161.414,245.029h20.94L1833.113,988.8v382.614h177.62v-672H1820.88L1661.228,956.251l-159.65-256.833H1311.725v672Zm828.348,0V994.333l287.273,377.085h160.732v-672H2587.124v368.489L2306.713,699.418H2139.135v672Z" transform="translate(-852.901 -595.418)"/></g></svg>