<svg xmlns="http://www.w3.org/2000/svg" width="235.672" height="18" viewBox="0 0 235.672 18"><defs><style>.a{fill:#fff;}</style></defs><path class="a" d="M787.5,382.161V371.929h1.986v10.106c0,3.8,2.036,5.933,5.38,5.933,3.243,0,5.3-1.961,5.3-5.807V371.929h1.986V382.01c0,5.129-2.941,7.794-7.34,7.794C790.468,389.8,787.5,387.139,787.5,382.161Zm19.358-10.232h1.986v15.763h9.9v1.835H806.86Zm17.2,1.835h-5.908v-1.835h13.826v1.835h-5.907v15.763h-2.011Zm11.137-1.835h7.567a6.941,6.941,0,0,1,5,1.76,4.864,4.864,0,0,1,1.357,3.469v.051c0,2.916-2.011,4.625-4.776,5.128l5.4,7.19H847.31l-5.1-6.838h-5.028v6.838h-1.986Zm7.391,8.975c2.639,0,4.525-1.357,4.525-3.62v-.05c0-2.162-1.659-3.47-4.5-3.47h-5.43v7.14Zm17.8-9.1h1.86l8.02,17.723h-2.137l-2.061-4.651h-9.578l-2.087,4.651h-2.036Zm4.9,11.262-4-8.949-4.022,8.949Zm12.185,6.461v-9.946l7.577,9.946h4.239V371.8h-4.659v9.718l-7.4-9.718h-4.42v17.723Zm19.962,0V379.511l4.257,6.463h.552l4.308-6.538v10.091h4.684V371.8h-5.007l-4.21,6.773L897.8,371.8H892.8v17.723Zm21.847,0v-9.946l7.576,9.946h4.239V371.8h-4.659v9.718l-7.4-9.718H914.62v17.723Zm22.584-2.866,1.432-1.232c1.081,1.634,2.188,2.514,4.022,2.514,1.987,0,3.445-1.432,3.445-4.223V371.93h2.011V383.7a6.346,6.346,0,0,1-1.609,4.625,5.394,5.394,0,0,1-3.871,1.458A6.025,6.025,0,0,1,941.863,386.661ZM962.98,371.8h1.86l8.02,17.723h-2.137l-2.061-4.651h-9.579L957,389.527H954.96Zm4.9,11.262-4-8.949-4.023,8.949Zm7.693-11.136h6.587c3.972,0,6.587,2.111,6.587,5.58v.051c0,3.8-3.168,5.757-6.914,5.757h-4.274v6.209h-1.986Zm6.336,9.577c2.916,0,4.826-1.558,4.826-3.871v-.05c0-2.514-1.885-3.821-4.726-3.821h-4.45v7.742Zm14.036-9.7h1.861l8.019,17.723h-2.137l-2.061-4.651h-9.578l-2.087,4.651h-2.036Zm4.9,11.262-4-8.949-4.022,8.949Zm7.441-11.136h1.861l11.087,14.1v-14.1h1.935v17.6h-1.584l-11.363-14.43v14.43h-1.936Z" transform="translate(-787.502 -371.804)"/></svg>