<svg xmlns="http://www.w3.org/2000/svg" xmlns:xlink="http://www.w3.org/1999/xlink" width="410" height="284" viewBox="0 0 410 284"><defs><style>.a{fill:#fff;}.b,.e,.j,.k{fill:#1a1a1a;}.b{font-size:21px;}.b,.d,.e,.j{font-family:SourceHanSans-Bold, Source Han Sans;}.b,.d,.e,.i,.j,.k{font-weight:700;}.c{fill:#0d3bd1;}.d{fill:#0b3bd8;}.d,.e{font-size:14px;}.f,.h{fill:#333;}.f{opacity:0.2;}.g{fill:url(#a);}.h{opacity:0.101;}.i{fill:#ffd800;}.i,.j,.k{font-size:12px;}.i,.k{font-family:IBMPlexSans-Bold, IBM Plex Sans;}.j,.k{opacity:0.5;}</style><linearGradient id="a" x1="0.521" y1="0.5" x2="0" y2="0.5" gradientUnits="objectBoundingBox"><stop offset="0" stop-color="#0c4af2"/><stop offset="1" stop-color="#1109e2"/></linearGradient></defs><rect class="a" width="410" height="284" rx="16"/><text class="b" transform="translate(30 40)"><tspan x="0" y="0">純度</tspan></text><rect class="c" width="362" height="1" transform="translate(24 54)"/><text class="d" transform="translate(101 99)"><tspan x="-70.812" y="0">Ultra NMN</tspan><tspan x="-32.984" y="16">9600</tspan></text><text class="e" transform="translate(101 153)"><tspan x="-56" y="0">国内他社</tspan></text><text class="e" transform="translate(101 198)"><tspan x="-56" y="0">米国他社</tspan></text><text class="e" transform="translate(101 243)"><tspan x="-56" y="0">香港他社</tspan></text><g transform="translate(105 79)"><rect class="f" width="1" height="181" transform="translate(4)"/><rect class="f" width="4" height="1"/><rect class="f" width="4" height="1" transform="translate(0 45)"/><rect class="f" width="4" height="1" transform="translate(0 90)"/><rect class="f" width="4" height="1" transform="translate(0 135)"/><rect class="f" width="4" height="1" transform="translate(0 180)"/></g><rect class="g" width="264" height="32" transform="translate(114 86)"/><rect class="h" width="6.48" height="32" transform="translate(114 131)"/><rect class="h" width="210.19" height="32" transform="translate(114 176)"/><rect class="h" width="143.34" height="32" transform="translate(114 221)"/><text class="i" transform="translate(333 106)"><tspan x="0" y="0">99.8%</tspan></text><text class="j" transform="translate(122 153)"><tspan x="0" y="0">純度非公開</tspan></text><text class="k" transform="translate(290 197)"><tspan x="0" y="0">99%</tspan></text><text class="k" transform="translate(223 242)"><tspan x="0" y="0">98%</tspan></text></svg>